<?xml version="1.0" encoding="UTF-8" standalone="no"?>
<!-- Created with Inkscape (http://www.inkscape.org/) -->

<svg
   width="201.41826mm"
   height="196.9249mm"
   viewBox="0 0 201.41826 196.9249"
   version="1.1"
   id="svg1"
   xml:space="preserve"
   sodipodi:docname="logo.svg"
   inkscape:version="1.2.2 (732a01da63, 2022-12-09)"
   xmlns:inkscape="http://www.inkscape.org/namespaces/inkscape"
   xmlns:sodipodi="http://sodipodi.sourceforge.net/DTD/sodipodi-0.dtd"
   xmlns="http://www.w3.org/2000/svg"
   xmlns:svg="http://www.w3.org/2000/svg"><g
     id="g3197"><path
       id="path2-9-3-8-1"
       style="fill:#f3f3f3;fill-opacity:1;stroke-width:1.95082"
       d="m 74.302731,5.6763975 a 25.220223,17.735249 78.393877 0 0 -2.300977,0.3142 A 25.220223,17.735249 78.393877 0 0 60.112323,34.63606 25.220223,17.735249 78.393877 0 0 82.777536,55.262618 25.220223,17.735249 78.393877 0 0 94.667962,26.611863 25.220223,17.735249 78.393877 0 0 76.656568,5.7893775 25.220223,17.735249 78.393877 0 0 74.302731,5.6763975 Z m 57.252589,0.13745 a 17.735249,25.220223 16.656696 0 0 -21.74287,19.9991955 17.735249,25.220223 16.656696 0 0 10.19636,28.899853 17.735249,25.220223 16.656696 0 0 24.03952,-19.604751 17.735249,25.220223 16.656696 0 0 -6.00469,-26.8687578 17.735249,25.220223 16.656696 0 0 -4.19494,-2.0271397 17.735249,25.220223 16.656696 0 0 -2.29338,-0.3984 z m 40.23066,28.5453675 a 13.770641,19.582395 38.591861 0 0 -15.89676,9.229352 13.770641,19.582395 38.591861 0 0 -1.03864,23.772617 13.770641,19.582395 38.591861 0 0 23.00052,-7.147743 13.770641,19.582395 38.591861 0 0 3.46882,-21.093695 13.770641,19.582395 38.591861 0 0 -2.43346,-2.676932 13.770641,19.582395 38.591861 0 0 -7.10048,-2.083599 z m -142.655127,1.13116 a 19.582395,13.770641 48.528223 0 0 -3.74599,0.814344 19.582395,13.770641 48.528223 0 0 -3.05619,1.934941 19.582395,13.770641 48.528223 0 0 3.07006,23.885263 19.582395,13.770641 48.528223 0 0 23.23677,5.125258 19.582395,13.770641 48.528223 0 0 -3.07171,-23.888898 19.582395,13.770641 48.528223 0 0 -16.43294,-7.870908 z M 129.53019,60.65316 c -9.18451,-0.240566 -19.31841,4.159028 -28.42182,14.959175 -35.829717,-43.038933 -87.233117,16.556816 -29.313096,65.904815 0.403539,-2.71107 0.598822,-8.85292 1.549077,-9.67666 1.879642,1.42462 3.815633,1.7545 5.489664,1.70532 0.897609,1.33897 1.517062,3.01233 1.074328,4.67199 l -2.772402,7.59739 c 1.785419,1.34849 3.678248,2.68366 5.63997,4.00895 l 1.598286,-2.92372 c 0.748033,-0.85908 2.451636,-0.28104 2.451636,-1.11563 0,-0.27819 0.552574,0.0214 0.817318,0.0586 1.176068,2.37865 2.838122,4.22781 4.360788,6.02881 l -5.669027,0.27782 c 4.582671,2.90164 9.584549,5.73775 15.090298,8.4735 5.97334,-2.85955 11.37282,-5.83575 16.28524,-8.88875 -1.15133,-1.74911 -2.55869,-2.70406 -4.02317,-3.98584 -2.87916,3.24055 -5.9439,5.28769 -9.43749,4.5785 5.87824,-11.3039 12.61081,-1.82213 21.766,-6.16425 51.98298,-37.85723 32.4749,-84.751362 3.5144,-85.509898 z m -3.51441,85.5099 c -0.56153,0.40894 -1.14389,0.81524 -1.72218,1.22201 0.59871,-0.41996 1.21456,-0.83058 1.7995,-1.25604 -0.0261,0.0129 -0.0514,0.0218 -0.0773,0.0339 z m -1.72218,1.22201 c -0.59385,0.41657 -1.18049,0.83624 -1.78494,1.2458 0.60884,-0.4134 1.19376,-0.82998 1.78494,-1.2458 z m -1.78494,1.2458 c -0.62578,0.42486 -1.27678,0.84611 -1.92141,1.26826 0.64457,-0.42147 1.28524,-0.83723 1.92141,-1.26826 z m -1.92141,1.26826 c -0.7327,0.47912 -1.46496,0.95765 -2.20384,1.42188 0.75012,-0.47174 1.47789,-0.94646 2.20384,-1.42188 z m -2.20384,1.42188 c -0.22021,0.1385 -0.45065,0.27547 -0.67296,0.41363 0.003,0.005 0.006,0.0101 0.0101,0.0141 0.2225,-0.13813 0.44046,-0.2882 0.66271,-0.42782 z m -32.048511,0.8289 c -1.217115,-0.77066 -2.404418,-1.54574 -3.559,-2.32577 l -0.0076,0.0145 c 1.196875,0.85588 2.396282,1.57291 3.534214,2.31286 z m -9.198971,-6.33472 c -0.03627,-0.0276 -0.07569,-0.0544 -0.111968,-0.0819 0.03715,0.0278 0.07355,0.0578 0.110709,0.0855 z m -0.111968,-0.0819 c -0.103026,-0.0773 -0.204049,-0.15941 -0.306899,-0.23721 0.103656,0.079 0.202714,0.15833 0.306899,0.23721 z m -0.306899,-0.23721 c -1.01163,-0.77088 -1.998461,-1.54469 -2.95412,-2.32179 0.974866,0.79308 1.958914,1.56904 2.95412,2.32179 z m -2.95412,-2.32179 c -0.143027,-0.11638 -0.283724,-0.23588 -0.426159,-0.35316 0.143254,0.11763 0.281658,0.23566 0.426159,0.35316 z m -0.426159,-0.35316 c -0.527623,-0.4333 -1.030938,-0.86895 -1.54147,-1.30393 -0.0013,0.006 -0.0013,0.0174 -0.0025,0.0237 0.507081,0.43692 1.027928,0.85522 1.544127,1.28016 z m 5.497246,-74.496952 c 5.723159,1.568253 6.751062,5.320136 7.194653,9.343999 1.14336,7.631683 10.48417,11.338707 8.409715,23.500373 l -1.214748,0.63067 c -3.173724,-0.48187 -3.58128,-2.039557 -4.648517,-3.340631 L 88.34156,96.286166 c -0.416083,-0.873339 -0.891287,-1.40207 -1.798833,-0.186655 l -1.635302,3.550742 c -3.317784,1.991757 -8.056619,4.805957 -3.363755,12.123987 l -0.09345,2.80313 c -3.176797,1.69209 -5.361272,4.34919 -6.821002,8.50288 -5.515798,-3.0889 -3.051755,-21.58276 -1.95113,-29.25232 -2.682412,0.206744 -5.265465,0.550042 -8.046975,0.704001 -2.81517,0.162109 -4.17187,-2.610016 -6.16724,-4.529613 -0.48062,-0.438894 -1.0493,-0.852482 -1.96235,-1.167834 -0.73367,-0.627139 -0.51753,-1.30888 -0.37362,-1.401732 1.32671,-1.700227 3.12942,-2.904889 5.51307,-3.50416 2.7871,-0.706798 5.43663,-1.786742 7.00801,-5.793252 L 72.01968,76.281997 71.358942,71.33448 c 2.374921,-0.217405 4.424014,1.846204 6.634044,2.78298 z m 20.883885,37.913462 c 10.083387,3.30859 25.931407,18.41224 19.482537,34.40965 l 5.06875,2.31419 c -14.98543,6.38949 -21.68571,-18.97798 -31.232207,-23.432 -1.790256,-1.86881 -1.303327,-3.92449 0.467143,-5.88674 2.726884,-1.01145 4.600646,-3.91861 6.213777,-7.4051 z" /><text
       xml:space="preserve"
       style="font-weight:bold;font-size:25.4px;font-family:Comfortaa;-inkscape-font-specification:'Comfortaa Bold';letter-spacing:5.29167px;text-orientation:sideways;fill:#f3f3f3;fill-opacity:1;stroke-width:1.657"
       x="22.090717"
       y="191.28394"
       id="text3142"><tspan
         sodipodi:role="line"
         id="tspan3140"
         style="font-style:normal;font-variant:normal;font-weight:300;font-stretch:normal;font-size:25.4px;font-family:Comfortaa;-inkscape-font-specification:'Comfortaa Light';stroke-width:1.657"
         x="22.090717"
         y="191.28394">NA PORTA</tspan></text></g><sodipodi:namedview
     id="namedview1"
     pagecolor="#ffffff"
     bordercolor="#000000"
     borderopacity="0.25"
     inkscape:showpageshadow="2"
     inkscape:pageopacity="0.0"
     inkscape:pagecheckerboard="0"
     inkscape:deskcolor="#d1d1d1"
     inkscape:document-units="mm"
     inkscape:zoom="0.45733182"
     inkscape:cx="27.332452"
     inkscape:cy="498.54392"
     inkscape:window-width="1366"
     inkscape:window-height="697"
     inkscape:window-x="-8"
     inkscape:window-y="-8"
     inkscape:window-maximized="1"
     inkscape:current-layer="svg1"
     showgrid="false" /><defs
     id="defs1"><rect
       x="703.50142"
       y="471.57788"
       width="46.384709"
       height="95.861732"
       id="rect3089" /></defs><text
     xml:space="preserve"
     transform="scale(0.26458333)"
     id="text3087"
     style="fill:#f3f3f3;-inkscape-font-specification:'Comfortaa Bold';font-family:Comfortaa;font-size:64px;font-weight:bold;stroke-width:6.26267717;text-orientation:sideways;fill-opacity:1;white-space:pre;shape-inside:url(#rect3089)" /></svg>
