<?xml version="1.0" encoding="UTF-8" standalone="no"?>
<!-- Created with Inkscape (http://www.inkscape.org/) -->

<svg
   width="96mm"
   height="86mm"
   viewBox="0 0 96 86"
   version="1.1"
   id="svg1"
   xml:space="preserve"
   sodipodi:docname="logo.svg"
   inkscape:version="1.3.2 (091e20e, 2023-11-25, custom)"
   xmlns:inkscape="http://www.inkscape.org/namespaces/inkscape"
   xmlns:sodipodi="http://sodipodi.sourceforge.net/DTD/sodipodi-0.dtd"
   xmlns="http://www.w3.org/2000/svg"
   xmlns:svg="http://www.w3.org/2000/svg"><sodipodi:namedview
     id="namedview1"
     pagecolor="#ffffff"
     bordercolor="#000000"
     borderopacity="0.25"
     inkscape:showpageshadow="2"
     inkscape:pageopacity="0.0"
     inkscape:pagecheckerboard="0"
     inkscape:deskcolor="#d1d1d1"
     inkscape:document-units="mm"
     inkscape:zoom="0.72419033"
     inkscape:cx="682.14112"
     inkscape:cy="193.31935"
     inkscape:window-width="1920"
     inkscape:window-height="991"
     inkscape:window-x="-9"
     inkscape:window-y="-9"
     inkscape:window-maximized="1"
     inkscape:current-layer="svg1" /><defs
     id="defs1" /><path
     id="path2-9-3-8-0"
     style="fill:#f3f3f3;fill-opacity:1;stroke-width:1.02944"
     d="M 34.522018,2.1229337 A 13.308649,9.3588462 78.393877 0 0 33.307801,2.2887371 13.308649,9.3588462 78.393877 0 0 27.033774,17.404879 13.308649,9.3588462 78.393877 0 0 38.994152,28.289457 13.308649,9.3588462 78.393877 0 0 45.268699,13.170532 13.308649,9.3588462 78.393877 0 0 35.764132,2.1825478 13.308649,9.3588462 78.393877 0 0 34.522018,2.1229337 Z m 30.212058,0.07249 A 9.3588462,13.308649 16.656696 0 0 53.260421,12.748941 9.3588462,13.308649 16.656696 0 0 58.641004,27.999323 9.3588462,13.308649 16.656696 0 0 71.326607,17.653951 9.3588462,13.308649 16.656696 0 0 68.157947,3.4753724 9.3588462,13.308649 16.656696 0 0 65.944288,2.4056571 9.3588462,13.308649 16.656696 0 0 64.734076,2.1954237 Z M 85.963688,17.258733 a 7.2667322,10.33358 38.591861 0 0 -8.388678,4.8703 7.2667322,10.33358 38.591861 0 0 -0.548093,12.54476 7.2667322,10.33358 38.591861 0 0 12.137327,-3.771855 7.2667322,10.33358 38.591861 0 0 1.830489,-11.131086 7.2667322,10.33358 38.591861 0 0 -1.284132,-1.412606 7.2667322,10.33358 38.591861 0 0 -3.746913,-1.099513 z m -75.278763,0.596904 a 10.33358,7.2667322 48.528223 0 0 -1.9767438,0.429737 10.33358,7.2667322 48.528223 0 0 -1.6127396,1.021061 10.33358,7.2667322 48.528223 0 0 1.6200636,12.604183 10.33358,7.2667322 48.528223 0 0 12.2619828,2.70459 10.33358,7.2667322 48.528223 0 0 -1.620934,-12.606109 10.33358,7.2667322 48.528223 0 0 -8.671629,-4.153462 z m 52.980498,13.278338 c -4.84665,-0.126936 -10.194277,2.194714 -14.998128,7.893916 -18.907264,-22.711528 -46.0327038,8.736993 -15.46845,34.777821 0.212941,-1.430625 0.315989,-4.671666 0.817442,-5.106353 0.991878,0.751768 2.013496,0.92585 2.896879,0.899896 0.473666,0.706567 0.80055,1.589599 0.566919,2.465401 l -1.462989,4.009118 c 0.942161,0.711593 1.941001,1.416165 2.976197,2.115519 l 0.843412,-1.542842 c 0.394736,-0.453323 1.293723,-0.148309 1.293723,-0.58872 0,-0.146793 0.291591,0.01135 0.431295,0.03091 0.62061,1.255216 1.497671,2.231008 2.301178,3.1814 l -2.991531,0.146603 c 2.418264,1.531175 5.057742,3.027795 7.963118,4.471438 3.152121,-1.50898 6.001415,-3.079511 8.593686,-4.690581 -0.607562,-0.922988 -1.350223,-1.426911 -2.123017,-2.103307 -1.519324,1.710037 -3.136586,2.7903 -4.980144,2.416058 3.101929,-5.965033 6.654697,-0.961532 11.485861,-3.252859 27.431291,-19.977161 17.136929,-44.723094 1.854549,-45.123356 z m -1.854549,45.123364 c -0.296316,0.215803 -0.603627,0.430204 -0.908789,0.644862 0.315936,-0.221612 0.640912,-0.438292 0.94959,-0.662813 -0.01375,0.0067 -0.02712,0.01154 -0.04082,0.01784 z m -0.908789,0.644862 c -0.313372,0.219819 -0.622942,0.441277 -0.941916,0.657395 0.321294,-0.218139 0.629953,-0.437967 0.941916,-0.657395 z m -0.941916,0.657395 c -0.330213,0.224207 -0.673752,0.446496 -1.013915,0.669272 0.340137,-0.222414 0.678218,-0.441813 1.013915,-0.669272 z m -1.013915,0.669272 c -0.386652,0.25282 -0.773053,0.505346 -1.16297,0.750326 0.395844,-0.248948 0.77988,-0.499451 1.16297,-0.750326 z m -1.16297,0.750326 c -0.116197,0.07316 -0.237803,0.145354 -0.35511,0.218264 0.0013,0.002 0.0033,0.0058 0.0054,0.0075 0.117414,-0.07287 0.232435,-0.152068 0.349715,-0.225762 z m -16.91192,0.437453 c -0.64227,-0.406683 -1.268806,-0.815683 -1.878077,-1.227296 l -0.004,0.0075 c 0.631588,0.451656 1.264511,0.83003 1.864995,1.220497 z M 36.01709,76.073822 c -0.01914,-0.0146 -0.03994,-0.02871 -0.05908,-0.04321 0.01962,0.01469 0.03882,0.03043 0.05842,0.04511 z m -0.05908,-0.04321 c -0.05437,-0.04083 -0.107673,-0.08413 -0.16195,-0.125181 0.05469,0.04168 0.106977,0.08355 0.16195,0.125181 z m -0.16195,-0.125181 c -0.533834,-0.406788 -1.054583,-0.81513 -1.558883,-1.225198 0.514437,0.418501 1.033715,0.827978 1.558883,1.225198 z m -1.558883,-1.225198 c -0.07547,-0.06133 -0.149726,-0.124474 -0.224881,-0.186369 0.07564,0.06199 0.14863,0.12436 0.224881,0.186369 z m -0.224881,-0.186369 c -0.278433,-0.22866 -0.544026,-0.458541 -0.813439,-0.688079 -6.63e-4,0.0028 -6.63e-4,0.0086 -10e-4,0.0125 0.267584,0.230559 0.542438,0.451293 0.814832,0.675537 z m 2.900882,-39.311858 c 3.020097,0.827559 3.562518,2.807414 3.796601,4.930801 0.603348,4.027224 5.532472,5.983413 4.437785,12.401095 l -0.64102,0.332809 c -1.674765,-0.25429 -1.889832,-1.076279 -2.453011,-1.762861 l -0.123255,-1.146393 c -0.219567,-0.46086 -0.47033,-0.739863 -0.949242,-0.09848 l -0.862943,1.873713 c -1.750786,1.051049 -4.251458,2.536108 -1.775046,6.397814 l -0.04933,1.479202 c -1.676389,0.892904 -2.82913,2.295056 -3.599426,4.486947 -2.910675,-1.630012 -1.610398,-11.389162 -1.029601,-15.436387 -1.415502,0.109099 -2.778569,0.290249 -4.246373,0.371506 -1.485554,0.08556 -2.201483,-1.377304 -3.254438,-2.390268 -0.253622,-0.231607 -0.553712,-0.449862 -1.035522,-0.616266 -0.387162,-0.330939 -0.273101,-0.690694 -0.197161,-0.739682 0.700105,-0.897217 1.651384,-1.532922 2.909238,-1.849144 1.470742,-0.372974 2.868887,-0.942856 3.698104,-3.057086 L 33.31725,39.38132 32.968579,36.770529 c 1.253236,-0.114727 2.334537,0.974246 3.500764,1.468576 z m 11.020381,20.006841 c 5.320978,1.74594 13.683943,9.716096 10.280881,18.15789 l 2.67477,1.221192 C 52.98144,77.939658 49.445716,64.553299 44.408046,62.20293 c -0.944714,-0.986169 -0.687762,-2.070945 0.24651,-3.106427 1.43897,-0.533742 2.427755,-2.067827 3.279003,-3.907653 z" /></svg>
