<?xml version="1.0" encoding="UTF-8" standalone="no"?>
<!-- Created with Inkscape (http://www.inkscape.org/) -->

<svg
   width="510mm"
   height="196.925mm"
   viewBox="0 0 510 196.92501"
   version="1.1"
   id="svg1"
   xml:space="preserve"
   sodipodi:docname="logo.svg"
   inkscape:version="1.3.2 (091e20e, 2023-11-25, custom)"
   xmlns:inkscape="http://www.inkscape.org/namespaces/inkscape"
   xmlns:sodipodi="http://sodipodi.sourceforge.net/DTD/sodipodi-0.dtd"
   xmlns="http://www.w3.org/2000/svg"
   xmlns:svg="http://www.w3.org/2000/svg"><g
     id="g1"><path
       id="path2-9-3-8-1"
       style="fill:#f3f3f3;fill-opacity:1;stroke-width:2.26692"
       d="M 67.340006,7.3923655 A 29.306814,20.609003 78.393877 0 0 64.666187,7.7574775 29.306814,20.609003 78.393877 0 0 50.850237,41.044543 29.306814,20.609003 78.393877 0 0 77.188037,65.013352 29.306814,20.609003 78.393877 0 0 91.005143,31.720135 29.306814,20.609003 78.393877 0 0 70.07525,7.5236525 29.306814,20.609003 78.393877 0 0 67.340006,7.3923655 Z m 66.529534,0.159722 a 20.609003,29.306814 16.656696 0 0 -25.26597,23.2397895 20.609003,29.306814 16.656696 0 0 11.8485,33.582678 20.609003,29.306814 16.656696 0 0 27.9348,-22.781432 20.609003,29.306814 16.656696 0 0 -6.97767,-31.222472 20.609003,29.306814 16.656696 0 0 -4.87467,-2.3556088 20.609003,29.306814 16.656696 0 0 -2.66499,-0.4629547 z m 46.74948,33.1707515 a 16.001985,22.755454 38.591861 0 0 -18.47261,10.724842 16.001985,22.755454 38.591861 0 0 -1.20694,27.624644 16.001985,22.755454 38.591861 0 0 26.72744,-8.305937 16.001985,22.755454 38.591861 0 0 4.0309,-24.511639 16.001985,22.755454 38.591861 0 0 -2.82777,-3.110692 16.001985,22.755454 38.591861 0 0 -8.25102,-2.421218 z M 14.848645,42.037288 A 22.755454,16.001985 48.528223 0 0 10.495669,42.983586 22.755454,16.001985 48.528223 0 0 6.9442669,45.232057 22.755454,16.001985 48.528223 0 0 10.511786,72.9876 22.755454,16.001985 48.528223 0 0 37.513756,78.943335 22.755454,16.001985 48.528223 0 0 33.944317,51.183569 22.755454,16.001985 48.528223 0 0 14.848645,42.037288 Z M 131.51626,71.277358 C 120.84353,70.997811 109.0676,76.110299 98.489131,88.660456 56.8537,38.64766 -2.87891,107.90002 64.42625,165.24418 c 0.468927,-3.15036 0.695853,-10.28741 1.800084,-11.24463 2.184212,1.65546 4.433904,2.0388 6.379188,1.98165 1.043055,1.55593 1.762881,3.50043 1.248408,5.42902 l -3.221631,8.82844 c 2.074721,1.567 4.274257,3.11851 6.55385,4.65855 l 1.857266,-3.39747 c 0.869241,-0.99828 2.84889,-0.32658 2.84889,-1.2964 0,-0.32327 0.642111,0.0249 0.949753,0.0681 1.366634,2.76408 3.298001,4.91287 5.067394,7.0057 l -6.587615,0.32283 c 5.32523,3.37182 11.137594,6.66748 17.535474,9.84652 6.941239,-3.3229 13.215589,-6.78135 18.923989,-10.32905 -1.33789,-2.03253 -2.97329,-3.14222 -4.67506,-4.63169 -3.34567,3.76564 -6.90699,6.14449 -10.96667,5.32038 6.83071,-13.13554 14.65417,-2.11738 25.29283,-7.16308 60.40611,-43.99148 37.73701,-98.484094 4.08386,-99.365541 z m -4.08387,99.365542 c -0.65252,0.4752 -1.32924,0.94734 -2.00124,1.42002 0.69573,-0.48801 1.41137,-0.96516 2.09109,-1.45956 -0.0303,0.015 -0.0597,0.0253 -0.0898,0.0394 z m -2.00124,1.42002 c -0.69007,0.48407 -1.37177,0.97174 -2.07416,1.44766 0.70749,-0.48038 1.38719,-0.96446 2.07416,-1.44766 z m -2.07416,1.44766 c -0.72718,0.49371 -1.48367,0.98322 -2.23275,1.47377 0.74901,-0.48976 1.4935,-0.97289 2.23275,-1.47377 z m -2.23275,1.47377 c -0.85142,0.55675 -1.70234,1.11282 -2.56094,1.65227 0.87167,-0.54817 1.71736,-1.09982 2.56094,-1.65227 z m -2.56094,1.65227 c -0.25589,0.16095 -0.52367,0.32011 -0.782,0.48066 0.003,0.006 0.007,0.0117 0.0117,0.0164 0.25855,-0.16051 0.51183,-0.3349 0.77009,-0.49714 z m -37.241478,0.96322 c -1.414332,-0.89554 -2.794021,-1.79621 -4.135687,-2.70263 l -0.0088,0.0169 c 1.390812,0.99456 2.784567,1.82778 4.106885,2.68762 z m -10.689538,-7.36118 c -0.04215,-0.0321 -0.08795,-0.0632 -0.130111,-0.0952 0.04317,0.0323 0.08547,0.0672 0.128648,0.0994 z m -0.130111,-0.0952 c -0.11972,-0.0898 -0.237113,-0.18524 -0.356628,-0.27565 0.120452,0.0918 0.235561,0.18399 0.356628,0.27565 z m -0.356628,-0.27565 c -1.175551,-0.89579 -2.322284,-1.79498 -3.432795,-2.698 1.13283,0.92159 2.27633,1.82328 3.432795,2.698 z m -3.432795,-2.698 c -0.166202,-0.13524 -0.329697,-0.2741 -0.495212,-0.41038 0.166466,0.13669 0.327297,0.27384 0.495212,0.41038 z m -0.495212,-0.41038 c -0.613117,-0.50351 -1.197987,-1.00976 -1.791244,-1.51522 -0.0015,0.007 -0.0015,0.0202 -0.0029,0.0275 0.589247,0.50772 1.19449,0.9938 1.794332,1.48759 z m 6.387999,-86.568071 c 6.650519,1.822367 7.84498,6.182191 8.360448,10.858052 1.328626,8.868242 12.182986,13.175929 9.772394,27.308239 l -1.411581,0.73286 c -3.687982,-0.55995 -4.161577,-2.37004 -5.401745,-3.88195 l -0.271418,-2.52443 c -0.483504,-1.01485 -1.035708,-1.62925 -2.09031,-0.21689 l -1.90028,4.12609 c -3.855385,2.31449 -9.362083,5.5847 -3.908805,14.08851 l -0.108592,3.25734 c -3.691554,1.96627 -6.229993,5.05392 -7.926252,9.88066 -6.409558,-3.58942 -3.54625,-25.07995 -2.267284,-33.99226 -3.11706,0.24024 -6.118662,0.63917 -9.350877,0.81807 -3.27133,0.18838 -4.847864,-3.03293 -7.166557,-5.26358 -0.558498,-0.51001 -1.219324,-0.99061 -2.280322,-1.35706 -0.852551,-0.72876 -0.601388,-1.52097 -0.43416,-1.62886 1.541685,-1.97573 3.6365,-3.375584 6.406388,-4.071948 3.238711,-0.821327 6.317561,-2.076248 8.143562,-6.731934 l 3.916872,-2.153648 -0.767802,-5.749181 c 2.759745,-0.252632 5.140865,2.145356 7.709,3.233924 z M 96.87337,124.24811 c 11.71724,3.8447 30.13318,21.39569 22.63936,39.98527 l 5.89007,2.68917 c -17.41357,7.42482 -25.19953,-22.0531 -36.292902,-27.22884 -2.080342,-2.17162 -1.514513,-4.5604 0.542837,-6.8406 3.168738,-1.17534 5.346118,-4.55357 7.220635,-8.605 z" /><text
       xml:space="preserve"
       style="font-weight:bold;font-size:50.637px;font-family:Comfortaa;-inkscape-font-specification:'Comfortaa Bold';letter-spacing:5.0637px;text-orientation:sideways;fill:#f3f3f3;fill-opacity:1;stroke-width:1.58561"
       x="206.92874"
       y="176.77426"
       id="text3142"><tspan
         sodipodi:role="line"
         id="tspan3140"
         style="font-style:normal;font-variant:normal;font-weight:normal;font-stretch:normal;font-size:50.637px;font-family:Comfortaa;-inkscape-font-specification:Comfortaa;stroke-width:1.58561"
         x="206.92874"
         y="176.77426">NA PORTA</tspan></text><text
       xml:space="preserve"
       style="font-weight:bold;font-size:112.307px;font-family:Comfortaa;-inkscape-font-specification:'Comfortaa Bold';letter-spacing:8.02193px;text-orientation:sideways;fill:#f3f3f3;fill-opacity:1;stroke-width:2.51194"
       x="201.15193"
       y="118.92321"
       id="text3142-2"><tspan
         sodipodi:role="line"
         id="tspan3140-7"
         style="font-style:normal;font-variant:normal;font-weight:500;font-stretch:normal;font-size:112.307px;font-family:Comfortaa;-inkscape-font-specification:'Comfortaa Medium';stroke-width:2.51194"
         x="201.15193"
         y="118.92321">PATA</tspan></text></g><sodipodi:namedview
     id="namedview1"
     pagecolor="#ffffff"
     bordercolor="#000000"
     borderopacity="0.25"
     inkscape:showpageshadow="2"
     inkscape:pageopacity="0.0"
     inkscape:pagecheckerboard="0"
     inkscape:deskcolor="#d1d1d1"
     inkscape:document-units="mm"
     inkscape:zoom="0.45733182"
     inkscape:cx="1093.2981"
     inkscape:cy="496.35733"
     inkscape:window-width="1920"
     inkscape:window-height="991"
     inkscape:window-x="-9"
     inkscape:window-y="-9"
     inkscape:window-maximized="1"
     inkscape:current-layer="svg1"
     showgrid="false" /><defs
     id="defs1"><rect
       x="703.5014"
       y="471.57788"
       width="46.384708"
       height="95.861732"
       id="rect3089" /></defs><text
     xml:space="preserve"
     transform="scale(0.26458333)"
     id="text3087"
     style="font-weight:bold;font-size:64px;font-family:Comfortaa;-inkscape-font-specification:'Comfortaa Bold';text-orientation:sideways;white-space:pre;shape-inside:url(#rect3089);display:inline;fill:#f3f3f3;fill-opacity:1;stroke-width:6.26268" /></svg>
