<?xml version="1.0" encoding="UTF-8" standalone="no"?>
<!-- Created with Inkscape (http://www.inkscape.org/) -->

<svg
   width="201.41826mm"
   height="196.9249mm"
   viewBox="0 0 201.41826 196.9249"
   version="1.1"
   id="svg1"
   xml:space="preserve"
   sodipodi:docname="logo1.svg"
   inkscape:version="1.2.2 (732a01da63, 2022-12-09)"
   xmlns:inkscape="http://www.inkscape.org/namespaces/inkscape"
   xmlns:sodipodi="http://sodipodi.sourceforge.net/DTD/sodipodi-0.dtd"
   xmlns="http://www.w3.org/2000/svg"
   xmlns:svg="http://www.w3.org/2000/svg"><sodipodi:namedview
     id="namedview1"
     pagecolor="#ffffff"
     bordercolor="#000000"
     borderopacity="0.25"
     inkscape:showpageshadow="2"
     inkscape:pageopacity="0.0"
     inkscape:pagecheckerboard="0"
     inkscape:deskcolor="#d1d1d1"
     inkscape:document-units="mm"
     inkscape:zoom="0.22866591"
     inkscape:cx="-264.57813"
     inkscape:cy="196.79365"
     inkscape:window-width="1366"
     inkscape:window-height="697"
     inkscape:window-x="-8"
     inkscape:window-y="-8"
     inkscape:window-maximized="1"
     inkscape:current-layer="svg1"
     showgrid="false" /><defs
     id="defs1" /><path
     id="path2-9-3-8-1"
     style="fill:#f3f3f3;fill-opacity:1;stroke-width:1.95082"
     d="m 74.302731,7.7930643 a 25.220223,17.735249 78.393877 0 0 -2.300977,0.3142 A 25.220223,17.735249 78.393877 0 0 60.112323,36.752728 25.220223,17.735249 78.393877 0 0 82.777536,57.379286 25.220223,17.735249 78.393877 0 0 94.667962,28.728531 25.220223,17.735249 78.393877 0 0 76.656568,7.9060443 25.220223,17.735249 78.393877 0 0 74.302731,7.7930643 Z m 57.252589,0.13745 a 17.735249,25.220223 16.656696 0 0 -21.74287,19.9991967 17.735249,25.220223 16.656696 0 0 10.19636,28.899853 17.735249,25.220223 16.656696 0 0 24.03952,-19.604751 17.735249,25.220223 16.656696 0 0 -6.00469,-26.868759 17.735249,25.220223 16.656696 0 0 -4.19494,-2.0271397 17.735249,25.220223 16.656696 0 0 -2.29338,-0.3984 z m 40.23066,28.5453687 a 13.770641,19.582395 38.591861 0 0 -15.89676,9.229352 13.770641,19.582395 38.591861 0 0 -1.03864,23.772617 13.770641,19.582395 38.591861 0 0 23.00052,-7.147743 13.770641,19.582395 38.591861 0 0 3.46882,-21.093695 13.770641,19.582395 38.591861 0 0 -2.43346,-2.676932 13.770641,19.582395 38.591861 0 0 -7.10048,-2.083599 z m -142.655127,1.13116 a 19.582395,13.770641 48.528223 0 0 -3.74599,0.814344 19.582395,13.770641 48.528223 0 0 -3.05619,1.934941 19.582395,13.770641 48.528223 0 0 3.07006,23.885263 19.582395,13.770641 48.528223 0 0 23.23677,5.125258 19.582395,13.770641 48.528223 0 0 -3.07171,-23.888898 19.582395,13.770641 48.528223 0 0 -16.43294,-7.870908 z M 129.53019,62.769828 C 120.34568,62.529262 110.21178,66.928856 101.10837,77.729003 65.278653,34.69007 13.875253,94.285819 71.795274,143.63383 c 0.403539,-2.71107 0.598822,-8.85292 1.549077,-9.67666 1.879642,1.42462 3.815633,1.7545 5.489664,1.70532 0.897609,1.33897 1.517062,3.01233 1.074328,4.67199 l -2.772402,7.59739 c 1.785419,1.34849 3.678248,2.68366 5.63997,4.00895 l 1.598286,-2.92372 c 0.748033,-0.85908 2.451636,-0.28104 2.451636,-1.11563 0,-0.27819 0.552574,0.0214 0.817318,0.0586 1.176068,2.37865 2.838122,4.22781 4.360788,6.02881 l -5.669027,0.27782 c 4.582671,2.90164 9.584549,5.73775 15.090298,8.4735 5.97334,-2.85955 11.37282,-5.83575 16.28524,-8.88875 -1.15133,-1.74911 -2.55869,-2.70406 -4.02317,-3.98584 -2.87916,3.24055 -5.9439,5.28769 -9.43749,4.5785 5.87824,-11.3039 12.61081,-1.82213 21.766,-6.16425 51.98298,-37.85723 32.4749,-84.751374 3.5144,-85.50991 z m -3.51441,85.509912 c -0.56153,0.40894 -1.14389,0.81524 -1.72218,1.22201 0.59871,-0.41996 1.21456,-0.83058 1.7995,-1.25604 -0.0261,0.0129 -0.0514,0.0218 -0.0773,0.0339 z m -1.72218,1.22201 c -0.59385,0.41657 -1.18049,0.83624 -1.78494,1.2458 0.60884,-0.4134 1.19376,-0.82998 1.78494,-1.2458 z m -1.78494,1.2458 c -0.62578,0.42486 -1.27678,0.84611 -1.92141,1.26826 0.64457,-0.42147 1.28524,-0.83723 1.92141,-1.26826 z m -1.92141,1.26826 c -0.7327,0.47912 -1.46496,0.95765 -2.20384,1.42188 0.75012,-0.47174 1.47789,-0.94646 2.20384,-1.42188 z m -2.20384,1.42188 c -0.22021,0.1385 -0.45065,0.27547 -0.67296,0.41363 0.003,0.005 0.006,0.0101 0.0101,0.0141 0.2225,-0.13813 0.44046,-0.2882 0.66271,-0.42782 z m -32.048511,0.8289 c -1.217115,-0.77066 -2.404418,-1.54574 -3.559,-2.32577 l -0.0076,0.0145 c 1.196875,0.85588 2.396282,1.57291 3.534214,2.31286 z m -9.198971,-6.33472 c -0.03627,-0.0276 -0.07569,-0.0544 -0.111968,-0.0819 0.03715,0.0278 0.07355,0.0578 0.110709,0.0855 z m -0.111968,-0.0819 c -0.103026,-0.0773 -0.204049,-0.15941 -0.306899,-0.23721 0.103656,0.079 0.202714,0.15833 0.306899,0.23721 z m -0.306899,-0.23721 c -1.01163,-0.77088 -1.998461,-1.54469 -2.95412,-2.32179 0.974866,0.79308 1.958914,1.56904 2.95412,2.32179 z m -2.95412,-2.32179 c -0.143027,-0.11638 -0.283724,-0.23588 -0.426159,-0.35316 0.143254,0.11763 0.281658,0.23566 0.426159,0.35316 z m -0.426159,-0.35316 c -0.527623,-0.4333 -1.030938,-0.86895 -1.54147,-1.30393 -0.0013,0.006 -0.0013,0.0174 -0.0025,0.0237 0.507081,0.43692 1.027928,0.85522 1.544127,1.28016 z m 5.497246,-74.496964 c 5.723159,1.568253 6.751062,5.320136 7.194653,9.343999 1.14336,7.631683 10.48417,11.338707 8.409715,23.500385 l -1.214748,0.63067 c -3.173724,-0.48187 -3.58128,-2.03956 -4.648517,-3.34064 L 88.34156,98.402834 c -0.416083,-0.873339 -0.891287,-1.40207 -1.798833,-0.186655 l -1.635302,3.550751 c -3.317784,1.99176 -8.056619,4.80596 -3.363755,12.12399 l -0.09345,2.80313 c -3.176797,1.69209 -5.361272,4.34919 -6.821002,8.50288 -5.515798,-3.0889 -3.051755,-21.58276 -1.95113,-29.252332 -2.682412,0.206744 -5.265465,0.550042 -8.046975,0.704001 -2.81517,0.162109 -4.17187,-2.610016 -6.16724,-4.529613 -0.48062,-0.438894 -1.0493,-0.852482 -1.96235,-1.167834 -0.73367,-0.627139 -0.51753,-1.30888 -0.37362,-1.401732 1.32671,-1.700227 3.12942,-2.904889 5.51307,-3.50416 2.7871,-0.706798 5.43663,-1.786742 7.00801,-5.793252 l 3.370697,-1.853343 -0.660738,-4.947517 c 2.374921,-0.217405 4.424014,1.846204 6.634044,2.78298 z m 20.883885,37.913474 c 10.083387,3.30859 25.931407,18.41224 19.482537,34.40965 l 5.06875,2.31419 c -14.98543,6.38949 -21.68571,-18.97798 -31.232207,-23.432 -1.790256,-1.86881 -1.303327,-3.92449 0.467143,-5.88674 2.726884,-1.01145 4.600646,-3.91861 6.213777,-7.4051 z" /><path
     style="font-weight:bold;font-size:25.4px;font-family:Comfortaa;-inkscape-font-specification:'Comfortaa Bold';letter-spacing:1.68732px;fill:#f3f3f3;fill-opacity:1;stroke-width:0.752459"
     d="m 6.1088191,122.46153 q -0.29652,-0.63497 -0.0657,-1.27007 0.23076,-0.63511 0.86573,-0.93161 l 19.5397299,-9.12459 q 0.66382,-0.30998 1.27006,-0.0657 0.63511,0.23076 0.93163,0.86573 l 2.69557,5.77244 q 1.01085,2.16466 0.84013,4.28344 -0.17074,2.11878 -1.44231,3.83758 -1.22925,1.73417 -3.42277,2.75849 -2.10694,0.9839 -4.19686,0.79969 -2.07645,-0.15535 -3.78175,-1.39807 -1.70531,-1.24271 -2.71617,-3.40738 l -1.99472,-4.2716 -6.3208399,2.95167 q -0.63495,0.29651 -1.27007,0.0658 -0.62162,-0.2019 -0.93161,-0.86573 z m 11.2932799,-3.44558 1.99475,4.27161 q 0.61998,1.32766 1.66895,2.06829 1.04896,0.74061 2.32869,0.84613 1.27975,0.10554 2.57855,-0.501 1.38538,-0.64693 2.15487,-1.70938 0.79835,-1.07594 0.93271,-2.36916 0.13437,-1.29321 -0.48561,-2.62087 l -1.99472,-4.2716 z m 1.62866,26.67286 q -1.36801,-1.8804 -1.52756,-4.04902 -0.13385,-2.18737 0.82606,-4.22501 1.00439,-2.03064 3.03933,-3.51107 2.03493,-1.48042 4.33237,-1.7337 2.31615,-0.22751 4.40532,0.69491 2.13367,0.92943 3.59534,2.93861 1.46169,2.00918 1.67048,4.29959 0.23454,2.27166 -0.71365,4.37956 -0.92944,2.13368 -2.96438,3.6141 l -0.73084,-1.0046 q -2.03493,1.48042 -4.29488,1.78522 -2.21544,0.31182 -4.25542,-0.48882 -2.0142,-0.81939 -3.38217,-2.69977 z m 2.69306,-1.1714 q 0.95572,1.3137 2.32351,1.89431 1.39356,0.56186 2.90643,0.36725 1.53863,-0.21336 2.90383,-1.20655 1.39098,-1.01193 2.04184,-2.39145 0.67661,-1.39825 0.54525,-2.87835 -0.10555,-1.49883 -1.06133,-2.81252 -0.93698,-1.28795 -2.34928,-1.87558 -1.36778,-0.5806 -2.92515,-0.393 -1.51288,0.19461 -2.90386,1.20655 -1.3652,0.99319 -2.04182,2.39144 -0.63213,1.40528 -0.52651,2.90412 0.15012,1.50586 1.08709,2.79378 z m 1.95665,7.4003 q -0.41225,-0.56669 -0.33275,-1.21542 0.12406,-0.64172 0.69073,-1.05398 l 3.94109,-2.86716 3.08647,-1.49698 0.62806,2.81261 -5.74419,4.17892 q -0.56669,0.41226 -1.23417,0.30697 -0.62298,-0.0984 -1.03524,-0.66496 z m 10.44646,10.68414 q -1.14508,-1.107 -1.50765,-2.56516 -0.34043,-1.48105 0.10693,-2.99796 0.44743,-1.5169 1.66512,-2.77651 l 10.56083,-10.92421 q 0.48708,-0.50386 1.11767,-0.51453 0.6306,-0.0101 1.13444,0.47643 0.50383,0.48707 0.51451,1.11766 0.0113,0.63059 -0.47641,1.13445 l -10.56083,10.92421 q -0.8856,0.91609 -0.97954,2.02151 -0.094,1.10544 0.63892,1.81392 l 0.77865,0.75276 q 0.41225,0.39853 0.37711,0.98484 -0.0126,0.60845 -0.49932,1.11228 -0.48708,0.50384 -1.18637,0.44808 -0.6764,-0.0336 -1.27185,-0.60925 z m 4.67958,-15.01485 q -0.48095,-0.46495 -0.51298,-1.02758 -0.0321,-0.56265 0.36645,-0.9749 0.44282,-0.45802 1.00623,-0.44503 0.56339,0.0131 1.04434,0.47793 l 5.29035,5.11438 q 0.48094,0.46494 0.51298,1.02758 0.0321,0.56264 -0.41075,1.02069 -0.39853,0.41223 -0.96193,0.39922 -0.56341,-0.013 -1.04435,-0.47794 z m 7.68207,24.87641 q -1.93882,-1.28382 -2.84616,-3.25997 -0.88972,-2.00271 -0.70237,-4.24734 0.23149,-2.25358 1.62083,-4.35177 1.38935,-2.09817 3.45345,-3.13829 2.09063,-1.02254 4.37043,-0.88832 2.32393,0.12532 4.39555,1.49703 2.07163,1.37175 3.0676,3.44481 1.01355,2.0465 0.86173,4.35285 -0.12531,2.32393 -1.51459,4.42213 l -1.0358,-0.68588 q -1.38935,2.09818 -3.40032,3.17346 -1.96683,1.06633 -4.15797,1.029 -2.17355,-0.064 -4.11238,-1.34771 z m 2.11398,-2.0386 q 1.35451,0.89691 2.83897,0.96296 1.50205,0.0395 2.85153,-0.67152 1.3671,-0.73756 2.29918,-2.14521 0.94966,-1.43419 1.07746,-2.95418 0.14533,-1.54654 -0.49494,-2.88741 -0.6227,-1.36745 -1.97724,-2.26437 -1.32796,-0.87932 -2.85656,-0.9364 -1.48445,-0.0661 -2.87808,0.65394 -1.34951,0.711 -2.29918,2.1452 -0.9321,1.40764 -1.07745,2.95417 -0.10114,1.53758 0.52149,2.90502 0.66686,1.35846 1.99482,2.2378 z m 4.41924,6.25005 q -0.5843,-0.3869 -0.73648,-1.02253 -0.10794,-0.64461 0.27887,-1.22891 l 2.69074,-4.06358 2.3688,-2.48112 1.57132,2.41582 -3.92181,5.92271 q -0.38691,0.58431 -1.04908,0.7189 -0.61804,0.12557 -1.20236,-0.26129 z m 32.7092,11.46556 q -0.68283,-0.15758 -1.04812,-0.69958 -0.3271,-0.56586 -0.16951,-1.2487 l 1.76216,-7.6354 q 0.4083,-1.76918 0.0144,-3.03698 -0.39393,-1.26781 -1.38956,-2.05332 -0.95739,-0.80941 -2.38514,-1.13892 -1.30361,-0.30085 -2.4807,-0.0168 -1.17707,0.2841 -2.00555,1.04095 -0.82133,0.72582 -1.08638,1.87423 l -1.9554,-0.45127 q 0.45127,-1.95542 1.73342,-3.2614 1.32035,-1.32985 3.1731,-1.85031 1.85275,-0.52046 3.90128,-0.0476 2.14164,0.49426 3.60282,1.81221 1.49935,1.2941 2.05325,3.28533 0.58491,1.9984 -0.0101,4.57457 l -1.76213,7.63541 q -0.1576,0.68283 -0.73062,1.04096 -0.53483,0.33426 -1.21767,0.17667 z m -12.7567,-2.94407 q -0.68285,-0.15758 -1.04813,-0.69958 -0.32709,-0.56584 -0.1695,-1.24869 l 3.19477,-13.84304 q 0.16475,-0.71389 0.69958,-1.04814 0.56586,-0.32708 1.2487,-0.16949 0.71388,0.16475 1.04812,0.69957 0.33424,0.53481 0.16951,1.2487 l -3.19478,13.84304 q -0.15757,0.68284 -0.69955,1.04815 -0.53483,0.33425 -1.24872,0.16948 z m 29.142721,3.93788 q -2.324621,0.0582 -4.200291,-1.04187 -1.8765,-1.13196 -3.00865,-3.07916 -1.10113,-1.97986 -1.16415,-4.49554 -0.0631,-2.51568 1.03308,-4.55058 1.12797,-2.0357 3.07358,-3.23155 1.97666,-1.2285 4.460491,-1.29073 2.48384,-0.0622 4.4877,1.06653 2.00306,1.09692 3.19971,3.07438 1.2285,1.97665 1.29153,4.49233 l -1.24192,0.0311 q 0.0631,2.51568 -0.96941,4.54898 -1.00138,2.00066 -2.81881,3.22517 -1.81825,1.19266 -4.14286,1.25091 z m 0.56508,-2.88192 q 1.62404,-0.0408 2.87865,-0.83687 1.25382,-0.82802 1.95273,-2.18382 0.69811,-1.38765 0.65581,-3.07538 -0.0432,-1.71959 -0.809,-3.03868 -0.76671,-1.35094 -2.05964,-2.08329 -1.2937,-0.76419 -2.91776,-0.7235 -1.5922,0.0399 -2.877871,0.8687 -1.25461,0.79617 -1.98455,2.18463 -0.69892,1.35578 -0.65582,3.07537 0.0423,1.68774 0.80901,3.0387 0.79777,1.31829 2.09146,2.08249 1.324771,0.73153 2.916981,0.69165 z m 7.20247,2.59171 q -0.70056,0.0175 -1.18939,-0.4163 -0.45779,-0.46648 -0.47534,-1.16706 l -0.12205,-4.87215 0.52046,-3.39062 2.67179,1.08015 0.17793,7.10125 q 0.0175,0.70056 -0.44815,1.1902 -0.43464,0.45698 -1.13522,0.47453 z m 21.4675,-4.93777 q -0.65039,0.26102 -1.27178,-0.005 -0.62139,-0.26547 -0.8824,-0.91584 l -8.03183,-20.0137 q -0.27287,-0.67993 0.005,-1.27176 0.26547,-0.6214 0.91583,-0.8824 l 5.91248,-2.37277 q 2.21718,-0.8898 4.3233,-0.60234 2.10611,0.28745 3.75208,1.652 1.66367,1.3231 2.56531,3.56983 0.86607,2.15805 0.56675,4.23461 -0.26975,2.0647 -1.60473,3.69881 -1.33498,1.63409 -3.55215,2.52388 l -4.37522,1.75584 2.59819,6.47417 q 0.261,0.65036 -0.005,1.27175 -0.23591,0.60953 -0.91583,0.8824 z m -2.8168,-11.46629 4.37522,-1.75585 q 1.35986,-0.54573 2.15727,-1.55223 0.7974,-1.00648 0.97342,-2.27843 0.17601,-1.27196 -0.35787,-2.60226 -0.56945,-1.41899 -1.5878,-2.24596 -1.03022,-0.85652 -2.31404,-1.06211 -1.28381,-0.20557 -2.64368,0.34016 l -4.37522,1.75585 z m 27.05071,-0.87027 q -2.12052,1.46995 -4.37879,1.67882 -2.27641,0.1827 -4.34401,-0.78709 -2.05957,-1.01413 -3.52951,-3.13464 -1.48811,-2.14669 -1.69698,-4.40497 -0.20084,-2.30261 0.7871,-4.34403 0.96979,-2.06759 3.09031,-3.53754 2.09433,-1.4518 4.37075,-1.63451 2.25828,-0.20887 4.31784,0.80527 2.0676,0.96979 3.5557,3.11648 1.46995,2.12052 1.69698,4.40497 0.20887,2.25827 -0.76093,4.32586 -0.98794,2.04142 -3.10846,3.51138 z m -1.63327,-2.35614 q 1.36131,-0.94367 1.97294,-2.29787 0.61163,-1.35419 0.42537,-2.85297 -0.16007,-1.51692 -1.15819,-2.95678 -0.99811,-1.43985 -2.36243,-2.12198 -1.3563,-0.72645 -2.839,-0.62886 -1.4827,0.0976 -2.84402,1.04127 -1.36132,0.94367 -1.97294,2.29788 -0.61163,1.35421 -0.4334,2.8973 0.16007,1.51691 1.15818,2.95677 0.99812,1.43985 2.36243,2.12199 1.36432,0.68214 2.84703,0.58453 1.4827,-0.0976 2.84403,-1.04128 z m 7.09108,-16.27495 q -1.3724,-1.33018 -1.80453,-3.03547 -0.4328,-1.75034 0.0353,-3.51477 0.46805,-1.76441 1.79823,-3.1368 1.33018,-1.3724 2.43056,-1.59233 1.09969,-0.26497 1.56208,0.49373 0.25372,0.37898 0.23719,0.76221 -0.0173,0.33816 -0.21538,0.6341 -0.19811,0.29597 -0.55495,0.52681 -1.71621,1.17568 -2.59527,2.58608 -0.87904,1.4104 -0.85793,2.76169 0.0433,1.32841 1.09543,2.34822 z m 7.84482,7.55919 q -0.53208,0.54895 -1.09476,0.58027 -0.58555,0.009 -1.15738,-0.54509 l -10.22436,-9.90988 q -0.54894,-0.53207 -0.55809,-1.11764 -0.009,-0.58555 0.52292,-1.13451 0.55424,-0.57184 1.11764,-0.5581 0.56267,-0.0314 1.1345,0.52293 l 10.22436,9.90987 q 0.54894,0.53207 0.55809,1.11763 0.0314,0.56269 -0.52292,1.13452 z m 14.33834,-17.0971 q -0.93063,1.29253 -2.32139,1.86124 -1.41662,0.55009 -2.98214,0.3257 -1.56552,-0.22438 -2.9873,-1.24808 l -12.33073,-8.87822 q -0.56871,-0.4095 -0.67004,-1.03197 -0.10138,-0.62249 0.30815,-1.1912 0.40947,-0.56872 1.03196,-0.67005 0.62249,-0.10127 1.19121,0.30815 l 12.33071,8.87824 q 1.03403,0.7445 2.14147,0.67832 1.10745,-0.0662 1.70306,-0.89338 l 0.63281,-0.87892 q 0.33503,-0.46532 0.9203,-0.51495 0.60387,-0.0754 1.17258,0.334 0.56872,0.40948 0.61421,1.10952 0.0641,0.67419 -0.41983,1.3463 z m -15.5321,-2.46934 q -0.39087,0.54286 -0.94305,0.65557 -0.55216,0.11272 -1.01748,-0.22231 -0.517,-0.37227 -0.58525,-0.93168 -0.0683,-0.5594 0.32263,-1.10226 l 4.29951,-5.97148 q 0.39087,-0.54286 0.94304,-0.65558 0.55217,-0.11272 1.06918,0.25956 0.46531,0.33501 0.53356,0.89443 0.0683,0.5594 -0.32263,1.10228 z M 191.32,129.81411 q -1.03108,2.08424 -2.87816,3.23173 -1.87563,1.13337 -4.12604,1.2284 -2.26486,0.0523 -4.52042,-1.06349 -2.25556,-1.11583 -3.5458,-3.03354 -1.27612,-1.94624 -1.42825,-4.22491 -0.16656,-2.32134 0.93516,-4.54835 1.10171,-2.227 3.03384,-3.47458 1.90357,-1.2617 4.21078,-1.3997 2.32134,-0.16655 4.5769,0.94929 l -0.55086,1.11349 q 2.25556,1.11584 3.57407,2.97644 1.30407,1.81792 1.54125,3.9965 0.20861,2.16446 -0.82247,4.24872 z m -2.28713,-1.84225 q 0.72035,-1.45612 0.60009,-2.93716 -0.14879,-1.49517 -1.02309,-2.74508 -0.90285,-1.26403 -2.41607,-2.01263 -1.54177,-0.76273 -3.06578,-0.69928 -1.55258,0.0494 -2.80278,0.85239 -1.27877,0.78894 -1.99913,2.24506 -0.70623,1.42757 -0.57156,2.95129 0.12028,1.48105 1.00898,2.77363 0.87429,1.24991 2.41606,2.01263 1.51322,0.7486 3.0658,0.69928 1.53815,-0.0921 2.81692,-0.88095 1.26433,-0.83161 1.97056,-2.25918 z m 5.64787,-5.16666 q -0.31074,0.62813 -0.92234,0.85865 -0.62601,0.18786 -1.25414,-0.12292 l -4.36836,-2.16106 -2.75808,-2.03967 2.20019,-1.86128 6.36696,3.14977 q 0.62813,0.31074 0.84452,0.95087 0.20199,0.59746 -0.10869,1.22559 z"
     id="text1-6-0"
     aria-label="                                  Pata na Porta" /></svg>
